<svg xmlns="http://www.w3.org/2000/svg" version="1.1" xmlns:xlink="http://www.w3.org/1999/xlink" xmlns:svgjs="http://svgjs.com/svgjs" width="1440" height="560" preserveAspectRatio="none" viewBox="0 0 1440 560">
    <g mask="url(&quot;#SvgjsMask1265&quot;)" fill="none">
        <rect width="1440" height="560" x="0" y="0" fill="url(#SvgjsLinearGradient1266)"></rect>
        <path d="M1179.5435601245633 265.3431296137869L1109.5348360073372 226.53666015494872 1086.3294938776928 350.9529810602071z" fill="rgba(226, 26, 26, 0.44)" class="triangle-float1"></path>
        <path d="M1419.4886225038913 502.22723111813696L1397.2302046069042 375.99347036550023 1293.2548617512546 524.4856490151241z" fill="rgba(226, 26, 26, 0.44)" class="triangle-float2"></path>
        <path d="M225.96 465.42 a162.19 162.19 0 1 0 324.38 0 a162.19 162.19 0 1 0 -324.38 0z" fill="rgba(226, 26, 26, 0.44)" class="triangle-float1"></path>
        <path d="M920.1364725445391 436.42431085446407L845.7289188339396 555.501288279013 964.8058962584885 629.9088419896125 1039.213449969088 510.8318645650636z" fill="rgba(226, 26, 26, 0.44)" class="triangle-float2"></path>
        <path d="M1427.155422335126 115.42349934968816L1312.781133433324-31.256838276032113 1249.2503377059443 118.41233714098095z" fill="rgba(226, 26, 26, 0.44)" class="triangle-float1"></path>
        <path d="M479.74488372365477 161.71488186535942L624.6575853707121 114.62989086590773 577.5725943712605-30.282810781149664 432.6598927242031 16.802180218302027z" fill="rgba(226, 26, 26, 0.44)" class="triangle-float2"></path>
        <path d="M655.4929556796098 110.74244043503435L582.7398216443295 183.4955744703148 728.2460897148903 256.24870850559523z" fill="rgba(226, 26, 26, 0.44)" class="triangle-float1"></path>
        <path d="M100.95088505977431 173.19307114378324L81.03314934550514 79.48749198979812-49.566351528337975 156.21688513819447z" fill="rgba(226, 26, 26, 0.44)" class="triangle-float2"></path>
        <path d="M1339.4027140874578-1.2877381530600918L1324.930600504456 164.12927703215456 1490.3476156896704 178.60139061515648 1504.8197292726725 13.184375429941817z" fill="rgba(226, 26, 26, 0.44)" class="triangle-float1"></path>
        <path d="M60.37 68.42 a139.15 139.15 0 1 0 278.3 0 a139.15 139.15 0 1 0 -278.3 0z" fill="rgba(226, 26, 26, 0.44)" class="triangle-float2"></path>
        <path d="M1090.7803471409663 320.30152758118106L991.9846496160993 400.3047059851819 1170.7835255449672 419.0972251060481z" fill="rgba(226, 26, 26, 0.44)" class="triangle-float2"></path>
        <path d="M430.0256415613935 541.6432921342403L443.53629698749603 387.21579396930167 275.59814339645493 528.1326367081377z" fill="rgba(226, 26, 26, 0.44)" class="triangle-float1"></path>
        <path d="M680.89 98.95 a182.66 182.66 0 1 0 365.32 0 a182.66 182.66 0 1 0 -365.32 0z" fill="rgba(226, 26, 26, 0.44)" class="triangle-float3"></path>
        <path d="M356.11 38.35 a120.42 120.42 0 1 0 240.84 0 a120.42 120.42 0 1 0 -240.84 0z" fill="rgba(226, 26, 26, 0.44)" class="triangle-float2"></path>
        <path d="M472.5419843559208 442.2505194092864L481.72555506277644 547.2192129147527 577.5106778613872 433.0669487024308z" fill="rgba(226, 26, 26, 0.44)" class="triangle-float3"></path>
        <path d="M430.21 487.2 a179.54 179.54 0 1 0 359.08 0 a179.54 179.54 0 1 0 -359.08 0z" fill="rgba(226, 26, 26, 0.44)" class="triangle-float1"></path>
        <path d="M406.59 385.81 a146.07 146.07 0 1 0 292.14 0 a146.07 146.07 0 1 0 -292.14 0z" fill="rgba(226, 26, 26, 0.44)" class="triangle-float1"></path>
        <path d="M1169.98 140.91 a169.55 169.55 0 1 0 339.1 0 a169.55 169.55 0 1 0 -339.1 0z" fill="rgba(226, 26, 26, 0.44)" class="triangle-float3"></path>
        <path d="M1425.2969417044249 247.4541340340917L1282.1694079947645 171.35187443021914 1206.067148390892 314.4794081398794 1349.1946821005522 390.581667743752z" fill="rgba(226, 26, 26, 0.44)" class="triangle-float3"></path>
    </g>
    <defs>
        <mask id="SvgjsMask1265">
            <rect width="1440" height="560" fill="#ffffff"></rect>
        </mask>
        <linearGradient x1="15.28%" y1="-39.29%" x2="84.72%" y2="139.29%" gradientUnits="userSpaceOnUse" id="SvgjsLinearGradient1266">
            <stop stop-color="rgba(241, 109, 109, 1)" offset="0.01"></stop>
            <stop stop-color="rgba(255, 0, 0, 1)" offset="1"></stop>
        </linearGradient>
        <style>
            @keyframes float1 {
                0%{transform: translate(0, 0)}
                50%{transform: translate(-10px, 0)}
                100%{transform: translate(0, 0)}
            }

            .triangle-float1 {
                animation: float1 5s infinite;
            }

            @keyframes float2 {
                0%{transform: translate(0, 0)}
                50%{transform: translate(-5px, -5px)}
                100%{transform: translate(0, 0)}
            }

            .triangle-float2 {
                animation: float2 4s infinite;
            }

            @keyframes float3 {
                0%{transform: translate(0, 0)}
                50%{transform: translate(0, -10px)}
                100%{transform: translate(0, 0)}
            }

            .triangle-float3 {
                animation: float3 6s infinite;
            }
        </style>
    </defs>
</svg>